<?xml version="1.0" encoding="utf-8"?>
<!-- Generator: Adobe Illustrator 23.0.5, SVG Export Plug-In . SVG Version: 6.00 Build 0)  -->
<svg version="1.1" id="Layer_1" xmlns="http://www.w3.org/2000/svg" xmlns:xlink="http://www.w3.org/1999/xlink" x="0px" y="0px"
	 viewBox="0 0 600 600" style="enable-background:new 0 0 600 600;" xml:space="preserve">
<style type="text/css">
	.st0{fill:url(#SVGID_1_);}
	.st1{fill:#FFFFFF;}
	.st2{fill:none;stroke:#FFFFFF;stroke-width:17;stroke-miterlimit:10;}
</style>
<linearGradient id="SVGID_1_" gradientUnits="userSpaceOnUse" x1="23.7368" y1="300" x2="576.2632" y2="300">
	<stop  offset="0" style="stop-color:#7400B8"/>
	<stop  offset="0.0888" style="stop-color:#6930C3"/>
	<stop  offset="0.1904" style="stop-color:#5E60CE"/>
	<stop  offset="0.2868" style="stop-color:#5390D9"/>
	<stop  offset="0.3832" style="stop-color:#4EA8DE"/>
	<stop  offset="0.4848" style="stop-color:#48BFE3"/>
	<stop  offset="0.5964" style="stop-color:#56CFE1"/>
	<stop  offset="0.6878" style="stop-color:#64DFDF"/>
	<stop  offset="0.7893" style="stop-color:#72EFDD"/>
	<stop  offset="0.9112" style="stop-color:#74F2DD"/>
	<stop  offset="1" style="stop-color:#80FFDB"/>
</linearGradient>
<circle class="st0" cx="300" cy="300" r="276.26"/>
<g>
	<path class="st1" d="M180.74,86.29v252.05c0,14.22-4.05,25.47-12.15,33.72c-8.09,8.25-19.42,12.38-33.97,12.38
		c-15.7,0-28-4.62-36.91-13.86c-8.92-9.23-13.37-22.2-13.37-38.87h22.32c0,9.98,2.21,17.86,6.62,23.67c4.42,5.81,11.2,8.7,20.36,8.7
		c8.66,0,14.96-2.46,18.88-7.36c3.93-4.91,5.89-11.04,5.89-18.39V86.29H180.74z"/>
	<path class="st1" d="M320.46,341.89c-7.03,13-17.37,23.05-31.02,30.17c-13.66,7.12-30.05,10.67-49.18,10.67h-54.94V209.82h54.94
		c19.13,0,35.52,3.47,49.18,10.42c13.64,6.96,23.99,16.93,31.02,29.93c7.04,12.99,10.55,28.32,10.55,45.99
		C331.01,313.65,327.49,328.9,320.46,341.89z M290.3,345.21c11.93-11.61,17.9-27.96,17.9-49.05c0-21.1-5.93-37.48-17.78-49.18
		c-11.86-11.69-29.15-17.53-51.87-17.53h-30.91v133.18h30.91C261.11,362.62,278.35,356.81,290.3,345.21z"/>
	<path class="st1" d="M506.34,213.76v238.32l-22.32,7.24V248.09l-54.2,135.64h-19.87l-54.45-135.14v291.64h-22.31V213.76h26.74
		l60.34,142.74l59.35-142.74H506.34z"/>
</g>
<circle class="st2" cx="300" cy="300" r="250"/>
</svg>
